<svg id="圖層_1" data-name="圖層 1" xmlns="http://www.w3.org/2000/svg" viewBox="0 0 300 216"><defs><style>.cls-1{fill:#fff;}</style></defs><path class="cls-1" d="M107.33,170.47a21.51,21.51,0,0,0,3.86-2.48c7.27-7.35,14.42-14.82,21.67-22.19a16.65,16.65,0,0,0,5-13.22c-.28-5.71,0-11.45.11-17.17.07-4.23.73-8.29,3.77-11.57a5.36,5.36,0,0,0,.73-1.17c.84-1.68,1.29-3.4-.58-4.67s-4.08-1.32-5.12.64c-1.65,3.11-3.52,6.51-3.75,9.89-.62,9.1-.44,18.26-.54,27.39,0,3.11-.48,6-2.93,8.18-3.67-1.19-5.22-3.86-6.09-7.16-.73-2.74-1.37-5.58-4.23-7.22-4.86,3.59-8.18,8.1-8.65,14.2a130.55,130.55,0,0,0-.42,14.93c.12,3.31-.74,5.7-4.19,7.49.73-12.83-2.34-25.7,4.67-38.35-3.51.21-5.87.32-8.22.5-5.89.43-11.8.74-17.66,1.43a12.27,12.27,0,0,0-6.06,2.28c-3.23,2.65-10.35,1.65-13.23-.91-2.52-2.23-2.21-7.55.78-9.5a9.05,9.05,0,0,1,4.85-1.73c12.91.47,24.27-5,36-9.14,5.22-1.85,10.33-4,15.45-6.09,6.2-2.54,8-5.25,6.91-11.74a119.66,119.66,0,0,0-3.79-15.84c-.63-2-2.46-3.75-3.92-5.46-.95-1.1-2.34-1.82-3.32-2.91a7.2,7.2,0,0,1,1.75-11.39,12.21,12.21,0,0,1,11.94-.25,7,7,0,0,1,4.18,7.23c-.54,5.61,1.67,10.08,5.33,14,3.51,3.79,7,7.58,10.65,11.26A16.91,16.91,0,0,0,165,95.09c16-.38,31.93-.75,47.87-1.59,3.82-.2,7.51-2.4,11.35-3.3a27.94,27.94,0,0,1,8.88-.92,6.41,6.41,0,0,1,5.61,6.29c.1,3.49-1.8,6.43-5.28,7.18a27.55,27.55,0,0,1-8.48.65c-12.43-1.24-22.69,4.38-33.1,9.64A240.46,240.46,0,0,1,199.05,152c.54,5.69-.92,10.33-5.61,14.18-6.77,5.55-13.1,11.66-19.61,17.52-.62.56-1.22,1.14-1.88,1.64-3,2.29-5.55,1.33-6-2.43-.69-5.21-1-10.49-1.9-15.65-1.21-6.6-2.85-13.14-4.46-19.66a12.49,12.49,0,0,0-2.09-4.17c-2.62-3.64-5.76-4-8.67-.71-3.59,4.08-7.56,5.93-13,4.24-.75-.23-2.13.67-2.86,1.41-6.79,6.91-13.49,13.92-20.26,20.86C111.2,170.71,109.55,172.1,107.33,170.47ZM167.44,127c1.41,8.16,2.5,15.91,8.81,21.87,3.59,3.39,2.15,7.69-2.54,9.57-3.1,1.24-3.56,1.12-4.76-1.93s-2.16-6.09-3.23-9.14c.55,5.9,1.57,11.68,2.34,17.51.25,1.89,1.05,2.33,2.69,2.12l10.91-1.39c-3.38,4.56-8.47,2.81-12.92,3.78.42,3.42.83,6.7,1.3,10.49,7.14-6.09,13.75-11.81,20.47-17.4,2.07-1.73,3.41-3.8,3.32-6.38a138.7,138.7,0,0,0-1.13-15.93A29.6,29.6,0,0,0,185.44,124c-6.06-6.58-10.46-6.91-17.14-.91-3.08,2.76-5.81,5.91-8.7,8.89l-3.89,4a34.54,34.54,0,0,0,5.91-4.06C163.53,130.4,165.39,128.78,167.44,127ZM160,106.89c-2.74,0-4.76,1.45-4.78,3.54,0,2.54,3.23,5.08,6.59,5.13,2.58,0,4.77-1.6,4.81-3.6C166.66,109.43,163.4,106.94,160,106.89Z"/><path class="cls-1" d="M219.66,116c5.26-.27,10.71-.26,16.09-.9,7.78-.94,15.18-3.28,21.48-8.16,4.8-3.72,8.25-8.28,7.07-14.9a15.35,15.35,0,0,0-5.38-8.8c-6.32-5.58-14-8.07-22.09-9.42A64.59,64.59,0,0,0,205.67,76c-6.33,2.08-11.88,5.37-16.14,10.67l-.53-.44a32.1,32.1,0,0,1,2.33-3.3A33.19,33.19,0,0,1,206,73.86c17.63-5.76,35.07-5.54,52,2.63a33,33,0,0,1,9.15,7c5.38,5.66,5.33,13.34.32,19.36-4.86,5.84-11.45,8.91-18.53,11A70.08,70.08,0,0,1,219.66,116Z"/><path class="cls-1" d="M153.63,78.05c1.68-1.29,3.45-2.46,5-3.88,7.64-6.89,7.46-16-.4-22.67-6-5.12-13.25-7.61-20.88-8.93-11.86-2-23.54-1.26-34.81,3.23-5,2-9.58,4.8-12.85,9.28-3.8,5.2-3.7,11,.17,16.14,3.17,4.19,7.49,6.77,12.19,8.83,1,.44,2,.83,3.33,1.36-7.36-.79-17.5-7.76-20.65-14-2.92-5.81-1.52-12.33,3.94-17.55,6-5.75,13.47-8.66,21.45-10.24,15.34-3,30.38-2.31,44.48,5.07a34.2,34.2,0,0,1,9.55,7.77c4.56,5.26,4.34,12,.16,17.59A23.79,23.79,0,0,1,153.63,78.05Z"/><path class="cls-1" d="M80.87,142.78c-11.87,1.84-23.37.66-34-5.23a26.17,26.17,0,0,1-7.27-6.24c-3.84-4.66-3.87-10.48.24-14.91a31.11,31.11,0,0,1,9.84-7.35c14.43-6.38,29.17-6.27,43.92-.86a6.28,6.28,0,0,1,.92.5l-.08.87a19.14,19.14,0,0,1-4.1-.37,55.62,55.62,0,0,0-32.2-.31c-5,1.44-9.67,3.65-13.36,7.5-5.16,5.38-5.14,12,.2,17.17,6.34,6.21,14.41,8.41,22.91,9.16C72.19,143.09,76.54,142.78,80.87,142.78Z"/><path class="cls-1" d="M141.4,153c2.65,8,8.85,10.65,15.52,12.69a20.28,20.28,0,0,1,4.1,1.76C152.32,167.68,141.06,160.2,141.4,153Z"/><path class="cls-1" d="M174.63,136.86c5.3.51,10.71,1.06,15.17,4.64Z"/></svg>